<?xml version="1.0" encoding="UTF-8" standalone="no"?>
<!DOCTYPE svg PUBLIC "-//W3C//DTD SVG 1.1//EN"
 "http://www.w3.org/Graphics/SVG/1.1/DTD/svg11.dtd">
<!-- Generated by graphviz version 5.0.0 (20220707.1540)
 -->
<!-- Title: dependencies Pages: 1 -->
<svg width="330pt" height="247pt"
 viewBox="0.00 0.00 330.00 246.80" xmlns="http://www.w3.org/2000/svg" xmlns:xlink="http://www.w3.org/1999/xlink">
<g id="graph0" class="graph" transform="scale(1 1) rotate(0) translate(4 242.8)">
<title>dependencies</title>
<polygon fill="white" stroke="transparent" points="-4,4 -4,-242.8 326,-242.8 326,4 -4,4"/>
<text text-anchor="middle" x="161" y="-8.2" font-family="sans-serif" font-size="14.00">dependencies</text>
<g id="clust1" class="cluster">
<title>cluster_AccountsModule</title>
<polygon fill="none" stroke="black" stroke-dasharray="1,5" points="8,-32.8 8,-230.8 314,-230.8 314,-32.8 8,-32.8"/>
</g>
<g id="clust4" class="cluster">
<title>cluster_AccountsModule_exports</title>
<polygon fill="none" stroke="black" points="86,-170.8 86,-222.8 216,-222.8 216,-170.8 86,-170.8"/>
</g>
<g id="clust6" class="cluster">
<title>cluster_AccountsModule_providers</title>
<polygon fill="none" stroke="black" points="138,-40.8 138,-92.8 306,-92.8 306,-40.8 138,-40.8"/>
</g>
<g id="clust3" class="cluster">
<title>cluster_AccountsModule_imports</title>
<polygon fill="none" stroke="black" points="16,-40.8 16,-92.8 130,-92.8 130,-40.8 16,-40.8"/>
</g>
<!-- PrismaModule -->
<g id="node1" class="node">
<title>PrismaModule</title>
<polygon fill="#8dd3c7" stroke="black" points="122.44,-84.8 119.44,-88.8 98.44,-88.8 95.44,-84.8 23.56,-84.8 23.56,-48.8 122.44,-48.8 122.44,-84.8"/>
<text text-anchor="middle" x="73" y="-62.6" font-family="Times,serif" font-size="14.00">PrismaModule</text>
</g>
<!-- AccountsModule -->
<g id="node2" class="node">
<title>AccountsModule</title>
<polygon fill="#8dd3c7" stroke="black" points="207.43,-149.8 204.43,-153.8 183.43,-153.8 180.43,-149.8 94.57,-149.8 94.57,-113.8 207.43,-113.8 207.43,-149.8"/>
<text text-anchor="middle" x="151" y="-127.6" font-family="Times,serif" font-size="14.00">AccountsModule</text>
</g>
<!-- PrismaModule&#45;&gt;AccountsModule -->
<g id="edge1" class="edge">
<title>PrismaModule&#45;&gt;AccountsModule</title>
<path fill="none" stroke="black" d="M108.5,-84.91C108.5,-84.91 108.5,-103.79 108.5,-103.79"/>
<polygon fill="black" stroke="black" points="105,-103.79 108.5,-113.79 112,-103.79 105,-103.79"/>
</g>
<!-- AccountsService  -->
<g id="node3" class="node">
<title>AccountsService </title>
<polygon fill="#fb8072" stroke="black" points="208.36,-214.8 93.64,-214.8 93.64,-178.8 208.36,-178.8 208.36,-214.8"/>
<text text-anchor="middle" x="151" y="-192.6" font-family="Times,serif" font-size="14.00">AccountsService </text>
</g>
<!-- AccountsModule&#45;&gt;AccountsService  -->
<g id="edge2" class="edge">
<title>AccountsModule&#45;&gt;AccountsService </title>
<path fill="none" stroke="black" stroke-dasharray="5,2" d="M151,-149.91C151,-149.91 151,-168.79 151,-168.79"/>
<polygon fill="black" stroke="black" points="147.5,-168.79 151,-178.79 154.5,-168.79 147.5,-168.79"/>
</g>
<!-- AccountsService -->
<g id="node4" class="node">
<title>AccountsService</title>
<ellipse fill="#fdb462" stroke="black" cx="222" cy="-66.8" rx="76.43" ry="18"/>
<text text-anchor="middle" x="222" y="-62.6" font-family="Times,serif" font-size="14.00">AccountsService</text>
</g>
<!-- AccountsService&#45;&gt;AccountsModule -->
<g id="edge3" class="edge">
<title>AccountsService&#45;&gt;AccountsModule</title>
<path fill="none" stroke="black" d="M176.37,-81.55C176.37,-81.55 176.37,-103.39 176.37,-103.39"/>
<polygon fill="black" stroke="black" points="172.87,-103.39 176.37,-113.39 179.87,-103.39 172.87,-103.39"/>
</g>
</g>
</svg>
