<?xml version="1.0" encoding="UTF-8" standalone="no"?>
<!DOCTYPE svg PUBLIC "-//W3C//DTD SVG 1.1//EN"
 "http://www.w3.org/Graphics/SVG/1.1/DTD/svg11.dtd">
<!-- Generated by graphviz version 5.0.0 (20220707.1540)
 -->
<!-- Title: dependencies Pages: 1 -->
<svg width="274pt" height="247pt"
 viewBox="0.00 0.00 274.00 246.80" xmlns="http://www.w3.org/2000/svg" xmlns:xlink="http://www.w3.org/1999/xlink">
<g id="graph0" class="graph" transform="scale(1 1) rotate(0) translate(4 242.8)">
<title>dependencies</title>
<polygon fill="white" stroke="transparent" points="-4,4 -4,-242.8 270,-242.8 270,4 -4,4"/>
<text text-anchor="middle" x="133" y="-8.2" font-family="sans-serif" font-size="14.00">dependencies</text>
<g id="clust1" class="cluster">
<title>cluster_PrismaModule</title>
<polygon fill="none" stroke="black" stroke-dasharray="1,5" points="8,-32.8 8,-230.8 258,-230.8 258,-32.8 8,-32.8"/>
</g>
<g id="clust4" class="cluster">
<title>cluster_PrismaModule_exports</title>
<polygon fill="none" stroke="black" points="16,-170.8 16,-222.8 250,-222.8 250,-170.8 16,-170.8"/>
</g>
<g id="clust6" class="cluster">
<title>cluster_PrismaModule_providers</title>
<polygon fill="none" stroke="black" points="58,-40.8 58,-92.8 208,-92.8 208,-40.8 58,-40.8"/>
</g>
<!-- ConfigService  -->
<g id="node1" class="node">
<title>ConfigService </title>
<polygon fill="#fb8072" stroke="black" points="242.37,-214.8 141.63,-214.8 141.63,-178.8 242.37,-178.8 242.37,-214.8"/>
<text text-anchor="middle" x="192" y="-192.6" font-family="Times,serif" font-size="14.00">ConfigService </text>
</g>
<!-- PrismaService  -->
<g id="node2" class="node">
<title>PrismaService </title>
<polygon fill="#fb8072" stroke="black" points="124.37,-214.8 23.63,-214.8 23.63,-178.8 124.37,-178.8 124.37,-214.8"/>
<text text-anchor="middle" x="74" y="-192.6" font-family="Times,serif" font-size="14.00">PrismaService </text>
</g>
<!-- PrismaModule -->
<g id="node3" class="node">
<title>PrismaModule</title>
<polygon fill="#8dd3c7" stroke="black" points="182.44,-149.8 179.44,-153.8 158.44,-153.8 155.44,-149.8 83.56,-149.8 83.56,-113.8 182.44,-113.8 182.44,-149.8"/>
<text text-anchor="middle" x="133" y="-127.6" font-family="Times,serif" font-size="14.00">PrismaModule</text>
</g>
<!-- PrismaModule&#45;&gt;ConfigService  -->
<g id="edge1" class="edge">
<title>PrismaModule&#45;&gt;ConfigService </title>
<path fill="none" stroke="black" stroke-dasharray="5,2" d="M162.02,-149.91C162.02,-149.91 162.02,-168.79 162.02,-168.79"/>
<polygon fill="black" stroke="black" points="158.52,-168.79 162.02,-178.79 165.52,-168.79 158.52,-168.79"/>
</g>
<!-- PrismaModule&#45;&gt;PrismaService  -->
<g id="edge2" class="edge">
<title>PrismaModule&#45;&gt;PrismaService </title>
<path fill="none" stroke="black" stroke-dasharray="5,2" d="M103.98,-149.91C103.98,-149.91 103.98,-168.79 103.98,-168.79"/>
<polygon fill="black" stroke="black" points="100.48,-168.79 103.98,-178.79 107.48,-168.79 100.48,-168.79"/>
</g>
<!-- PrismaService -->
<g id="node4" class="node">
<title>PrismaService</title>
<ellipse fill="#fdb462" stroke="black" cx="133" cy="-66.8" rx="66.64" ry="18"/>
<text text-anchor="middle" x="133" y="-62.6" font-family="Times,serif" font-size="14.00">PrismaService</text>
</g>
<!-- PrismaService&#45;&gt;PrismaModule -->
<g id="edge3" class="edge">
<title>PrismaService&#45;&gt;PrismaModule</title>
<path fill="none" stroke="black" d="M133,-84.91C133,-84.91 133,-103.79 133,-103.79"/>
<polygon fill="black" stroke="black" points="129.5,-103.79 133,-113.79 136.5,-103.79 129.5,-103.79"/>
</g>
</g>
</svg>
