<?xml version="1.0" encoding="UTF-8" standalone="no"?>
<!DOCTYPE svg PUBLIC "-//W3C//DTD SVG 1.1//EN"
 "http://www.w3.org/Graphics/SVG/1.1/DTD/svg11.dtd">
<!-- Generated by graphviz version 5.0.0 (20220707.1540)
 -->
<!-- Title: dependencies Pages: 1 -->
<svg width="878pt" height="261pt"
 viewBox="0.00 0.00 878.00 260.80" xmlns="http://www.w3.org/2000/svg" xmlns:xlink="http://www.w3.org/1999/xlink">
<g id="graph0" class="graph" transform="scale(1 1) rotate(0) translate(4 256.8)">
<title>dependencies</title>
<polygon fill="white" stroke="transparent" points="-4,4 -4,-256.8 874,-256.8 874,4 -4,4"/>
<text text-anchor="middle" x="435" y="-8.2" font-family="sans-serif" font-size="14.00">dependencies</text>
<g id="clust1" class="cluster">
<title>cluster_AccountsModule</title>
<polygon fill="none" stroke="black" stroke-dasharray="1,5" points="8,-32.8 8,-244.8 314,-244.8 314,-32.8 8,-32.8"/>
</g>
<g id="clust3" class="cluster">
<title>cluster_AccountsModule_imports</title>
<polygon fill="none" stroke="black" points="192,-40.8 192,-92.8 306,-92.8 306,-40.8 192,-40.8"/>
</g>
<g id="clust4" class="cluster">
<title>cluster_AccountsModule_exports</title>
<polygon fill="none" stroke="black" points="161,-184.8 161,-236.8 291,-236.8 291,-184.8 161,-184.8"/>
</g>
<g id="clust6" class="cluster">
<title>cluster_AccountsModule_providers</title>
<polygon fill="none" stroke="black" points="16,-40.8 16,-92.8 184,-92.8 184,-40.8 16,-40.8"/>
</g>
<g id="clust7" class="cluster">
<title>cluster_AppModule</title>
<polygon fill="none" stroke="black" stroke-dasharray="1,5" points="322,-100.8 322,-236.8 446,-236.8 446,-100.8 322,-100.8"/>
</g>
<g id="clust9" class="cluster">
<title>cluster_AppModule_imports</title>
<polygon fill="none" stroke="black" points="330,-108.8 330,-160.8 438,-160.8 438,-108.8 330,-108.8"/>
</g>
<g id="clust13" class="cluster">
<title>cluster_PrismaModule</title>
<polygon fill="none" stroke="black" stroke-dasharray="1,5" points="454,-100.8 454,-168.8 862,-168.8 862,-100.8 454,-100.8"/>
</g>
<g id="clust16" class="cluster">
<title>cluster_PrismaModule_exports</title>
<polygon fill="none" stroke="black" points="620,-108.8 620,-160.8 854,-160.8 854,-108.8 620,-108.8"/>
</g>
<g id="clust18" class="cluster">
<title>cluster_PrismaModule_providers</title>
<polygon fill="none" stroke="black" points="462,-108.8 462,-160.8 612,-160.8 612,-108.8 462,-108.8"/>
</g>
<g id="clust19" class="cluster">
<title>cluster_UsersModule</title>
<polygon fill="none" stroke="black" stroke-dasharray="1,5" points="454,-176.8 454,-244.8 728,-244.8 728,-176.8 454,-176.8"/>
</g>
<g id="clust22" class="cluster">
<title>cluster_UsersModule_exports</title>
<polygon fill="none" stroke="black" points="610,-184.8 610,-236.8 720,-236.8 720,-184.8 610,-184.8"/>
</g>
<g id="clust24" class="cluster">
<title>cluster_UsersModule_providers</title>
<polygon fill="none" stroke="black" points="462,-184.8 462,-236.8 602,-236.8 602,-184.8 462,-184.8"/>
</g>
<!-- PrismaModule -->
<g id="node1" class="node">
<title>PrismaModule</title>
<polygon fill="#8dd3c7" stroke="black" points="298.44,-84.8 295.44,-88.8 274.44,-88.8 271.44,-84.8 199.56,-84.8 199.56,-48.8 298.44,-48.8 298.44,-84.8"/>
<text text-anchor="middle" x="249" y="-62.6" font-family="Times,serif" font-size="14.00">PrismaModule</text>
</g>
<!-- AccountsModule -->
<g id="node2" class="node">
<title>AccountsModule</title>
<polygon fill="#8dd3c7" stroke="black" points="282.43,-152.8 279.43,-156.8 258.43,-156.8 255.43,-152.8 169.57,-152.8 169.57,-116.8 282.43,-116.8 282.43,-152.8"/>
<text text-anchor="middle" x="226" y="-130.6" font-family="Times,serif" font-size="14.00">AccountsModule</text>
</g>
<!-- PrismaModule&#45;&gt;AccountsModule -->
<g id="edge1" class="edge">
<title>PrismaModule&#45;&gt;AccountsModule</title>
<path fill="none" stroke="black" d="M241,-85.02C241,-85.02 241,-106.53 241,-106.53"/>
<polygon fill="black" stroke="black" points="237.5,-106.53 241,-116.53 244.5,-106.53 237.5,-106.53"/>
</g>
<!-- UsersModule -->
<g id="node5" class="node">
<title>UsersModule</title>
<polygon fill="#8dd3c7" stroke="black" points="429.94,-152.8 426.94,-156.8 405.94,-156.8 402.94,-152.8 338.06,-152.8 338.06,-116.8 429.94,-116.8 429.94,-152.8"/>
<text text-anchor="middle" x="384" y="-130.6" font-family="Times,serif" font-size="14.00">UsersModule</text>
</g>
<!-- PrismaModule&#45;&gt;UsersModule -->
<g id="edge10" class="edge">
<title>PrismaModule&#45;&gt;UsersModule</title>
<path fill="none" stroke="black" d="M290.7,-85.07C290.7,-103.36 290.7,-128.8 290.7,-128.8 290.7,-128.8 328.17,-128.8 328.17,-128.8"/>
<polygon fill="black" stroke="black" points="328.17,-132.3 338.17,-128.8 328.17,-125.3 328.17,-132.3"/>
</g>
<!-- AppModule -->
<g id="node6" class="node">
<title>AppModule</title>
<polygon fill="#8dd3c7" stroke="black" points="413.66,-228.8 410.66,-232.8 389.66,-232.8 386.66,-228.8 330.34,-228.8 330.34,-192.8 413.66,-192.8 413.66,-228.8"/>
<text text-anchor="middle" x="372" y="-206.6" font-family="Times,serif" font-size="14.00">AppModule</text>
</g>
<!-- PrismaModule&#45;&gt;AppModule -->
<g id="edge5" class="edge">
<title>PrismaModule&#45;&gt;AppModule</title>
<path fill="none" stroke="black" d="M298.36,-77.8C317.8,-77.8 335.58,-77.8 335.58,-77.8 335.58,-77.8 335.58,-182.59 335.58,-182.59"/>
<polygon fill="black" stroke="black" points="332.08,-182.59 335.58,-192.59 339.08,-182.59 332.08,-182.59"/>
</g>
<!-- ConfigService  -->
<g id="node7" class="node">
<title>ConfigService </title>
<polygon fill="#fb8072" stroke="black" points="846.37,-152.8 745.63,-152.8 745.63,-116.8 846.37,-116.8 846.37,-152.8"/>
<text text-anchor="middle" x="796" y="-130.6" font-family="Times,serif" font-size="14.00">ConfigService </text>
</g>
<!-- PrismaModule&#45;&gt;ConfigService  -->
<g id="edge7" class="edge">
<title>PrismaModule&#45;&gt;ConfigService </title>
<path fill="none" stroke="black" stroke-dasharray="5,2" d="M298.51,-56.8C433.16,-56.8 796,-56.8 796,-56.8 796,-56.8 796,-106.71 796,-106.71"/>
<polygon fill="black" stroke="black" points="792.5,-106.71 796,-116.71 799.5,-106.71 792.5,-106.71"/>
</g>
<!-- PrismaService  -->
<g id="node8" class="node">
<title>PrismaService </title>
<polygon fill="#fb8072" stroke="black" points="728.37,-152.8 627.63,-152.8 627.63,-116.8 728.37,-116.8 728.37,-152.8"/>
<text text-anchor="middle" x="678" y="-130.6" font-family="Times,serif" font-size="14.00">PrismaService </text>
</g>
<!-- PrismaModule&#45;&gt;PrismaService  -->
<g id="edge8" class="edge">
<title>PrismaModule&#45;&gt;PrismaService </title>
<path fill="none" stroke="black" stroke-dasharray="5,2" d="M298.63,-63.8C411.56,-63.8 678,-63.8 678,-63.8 678,-63.8 678,-106.52 678,-106.52"/>
<polygon fill="black" stroke="black" points="674.5,-106.52 678,-116.52 681.5,-106.52 674.5,-106.52"/>
</g>
<!-- AccountsService  -->
<g id="node3" class="node">
<title>AccountsService </title>
<polygon fill="#fb8072" stroke="black" points="283.36,-228.8 168.64,-228.8 168.64,-192.8 283.36,-192.8 283.36,-228.8"/>
<text text-anchor="middle" x="226" y="-206.6" font-family="Times,serif" font-size="14.00">AccountsService </text>
</g>
<!-- AccountsModule&#45;&gt;AccountsService  -->
<g id="edge2" class="edge">
<title>AccountsModule&#45;&gt;AccountsService </title>
<path fill="none" stroke="black" stroke-dasharray="5,2" d="M226,-152.81C226,-152.81 226,-182.65 226,-182.65"/>
<polygon fill="black" stroke="black" points="222.5,-182.65 226,-192.65 229.5,-182.65 222.5,-182.65"/>
</g>
<!-- AccountsModule&#45;&gt;AppModule -->
<g id="edge4" class="edge">
<title>AccountsModule&#45;&gt;AppModule</title>
<path fill="none" stroke="black" d="M282.25,-140.8C308,-140.8 332.87,-140.8 332.87,-140.8 332.87,-140.8 332.87,-182.77 332.87,-182.77"/>
<polygon fill="black" stroke="black" points="329.37,-182.77 332.87,-192.77 336.37,-182.77 329.37,-182.77"/>
</g>
<!-- AccountsService -->
<g id="node4" class="node">
<title>AccountsService</title>
<ellipse fill="#fdb462" stroke="black" cx="100" cy="-66.8" rx="76.43" ry="18"/>
<text text-anchor="middle" x="100" y="-62.6" font-family="Times,serif" font-size="14.00">AccountsService</text>
</g>
<!-- AccountsService&#45;&gt;AccountsModule -->
<g id="edge3" class="edge">
<title>AccountsService&#45;&gt;AccountsModule</title>
<path fill="none" stroke="black" d="M176.6,-66.8C183.6,-66.8 188.12,-66.8 188.12,-66.8 188.12,-66.8 188.12,-106.58 188.12,-106.58"/>
<polygon fill="black" stroke="black" points="184.62,-106.58 188.12,-116.58 191.62,-106.58 184.62,-106.58"/>
</g>
<!-- UsersModule&#45;&gt;AppModule -->
<g id="edge6" class="edge">
<title>UsersModule&#45;&gt;AppModule</title>
<path fill="none" stroke="black" d="M376.06,-152.81C376.06,-152.81 376.06,-182.65 376.06,-182.65"/>
<polygon fill="black" stroke="black" points="372.56,-182.65 376.06,-192.65 379.56,-182.65 372.56,-182.65"/>
</g>
<!-- UsersService  -->
<g id="node10" class="node">
<title>UsersService </title>
<polygon fill="#fb8072" stroke="black" points="711.86,-228.8 618.14,-228.8 618.14,-192.8 711.86,-192.8 711.86,-228.8"/>
<text text-anchor="middle" x="665" y="-206.6" font-family="Times,serif" font-size="14.00">UsersService </text>
</g>
<!-- UsersModule&#45;&gt;UsersService  -->
<g id="edge11" class="edge">
<title>UsersModule&#45;&gt;UsersService </title>
<path fill="none" stroke="black" stroke-dasharray="5,2" d="M419.13,-152.91C419.13,-162.7 419.13,-172.8 419.13,-172.8 419.13,-172.8 623.07,-172.8 623.07,-172.8 623.07,-172.8 623.07,-182.69 623.07,-182.69"/>
<polygon fill="black" stroke="black" points="619.57,-182.69 623.07,-192.69 626.57,-182.69 619.57,-182.69"/>
</g>
<!-- PrismaService -->
<g id="node9" class="node">
<title>PrismaService</title>
<ellipse fill="#fdb462" stroke="black" cx="537" cy="-134.8" rx="66.64" ry="18"/>
<text text-anchor="middle" x="537" y="-130.6" font-family="Times,serif" font-size="14.00">PrismaService</text>
</g>
<!-- PrismaService&#45;&gt;PrismaModule -->
<g id="edge9" class="edge">
<title>PrismaService&#45;&gt;PrismaModule</title>
<path fill="none" stroke="black" d="M537,-116.63C537,-97.71 537,-70.8 537,-70.8 537,-70.8 308.51,-70.8 308.51,-70.8"/>
<polygon fill="black" stroke="black" points="308.51,-67.3 298.51,-70.8 308.51,-74.3 308.51,-67.3"/>
</g>
<!-- UsersService -->
<g id="node11" class="node">
<title>UsersService</title>
<ellipse fill="#fdb462" stroke="black" cx="532" cy="-210.8" rx="61.97" ry="18"/>
<text text-anchor="middle" x="532" y="-206.6" font-family="Times,serif" font-size="14.00">UsersService</text>
</g>
<!-- UsersService&#45;&gt;UsersModule -->
<g id="edge12" class="edge">
<title>UsersService&#45;&gt;UsersModule</title>
<path fill="none" stroke="black" d="M469.73,-210.8C445.94,-210.8 424.42,-210.8 424.42,-210.8 424.42,-210.8 424.42,-162.81 424.42,-162.81"/>
<polygon fill="black" stroke="black" points="427.92,-162.81 424.42,-152.81 420.92,-162.81 427.92,-162.81"/>
</g>
</g>
</svg>
